<?xml version="1.0" encoding="utf-8"?>
<!-- Generator: Adobe Illustrator 19.1.0, SVG Export Plug-In . SVG Version: 6.00 Build 0)  -->
<svg version="1.0" id="Layer_1" xmlns="http://www.w3.org/2000/svg" xmlns:xlink="http://www.w3.org/1999/xlink" x="0px" y="0px"
	 viewBox="0 0 200 200" style="enable-background:new 0 0 200 200;" xml:space="preserve">
<style type="text/css">
	.st0{fill:#FFFFFF;}
	.st1{fill:#58B5C1;}
	.st2{fill:#3D9FAC;}
	.st3{fill:#33B0E0;}
	.st4{fill:#0898D1;}
	.st5{fill:#F4AC27;}
	.st6{fill:#FAD13B;}
	.st7{fill:#E24856;}
	.st8{fill:#C5222D;}
	.st9{fill:#F37920;}
	.st10{fill:#F68F30;}
	.st11{fill:#084469;}
	.st12{fill:#085581;}
	.st13{fill:#78102D;}
	.st14{fill:#8B183C;}
	.st15{fill:#106938;}
	.st16{fill:#8DC546;}
</style>
<g>
	<path class="st0" d="M163.7,0H36.3C16.2,0,0,16.2,0,36.3v127.4c0,20,16.2,36.3,36.3,36.3h127.4c20,0,36.3-16.2,36.3-36.3V36.3
		C200,16.2,183.8,0,163.7,0z"/>
	<polygon class="st1" points="123.2,196.3 123.2,196.3 123.2,126.9 100,103.8 100,173.1 	"/>
	<polygon class="st2" points="76.8,126.9 76.8,126.9 76.8,196.3 100,173.1 100,103.8 	"/>
	<polygon class="st3" points="76.8,3.7 76.8,3.7 76.8,73.1 100,96.2 100,26.9 	"/>
	<polygon class="st4" points="100,96.2 123.2,73.1 123.2,3.7 100,26.9 	"/>
	<polygon class="st5" points="72.9,76.8 72.9,76.8 3.5,76.8 26.7,100 96,100 	"/>
	<polygon class="st6" points="3.5,123.2 3.5,123.2 72.9,123.2 96,100 26.7,100 	"/>
	<polygon class="st7" points="196.7,76.8 196.7,76.8 126.7,76.8 103.6,100 173.5,100 	"/>
	<polygon class="st8" points="126.7,123.2 126.7,123.2 196.7,123.2 173.5,100 103.6,100 	"/>
	<path class="st9" d="M128,127.8L128,127.8l56.4,56.5c7.2-7.2,11.7-17.2,11.7-28.2v-28.3L128,127.8z"/>
	<path class="st10" d="M184.4,184.3L128,127.9l0,68.1h28.2C167.2,195.9,177.2,191.5,184.4,184.3z"/>
	<path class="st11" d="M44,195.9h28v-68l-56.3,56.3C23,191.4,33,195.9,44,195.9z"/>
	<path class="st12" d="M4.2,156.1c0,11,4.4,20.9,11.6,28.1L72,127.9v-0.1l-67.9,0V156.1z"/>
	<path class="st13" d="M4.2,43.9v28.3l67.9,0l0-0.4L15.9,15.7C8.7,22.9,4.2,32.9,4.2,43.9z"/>
	<path class="st14" d="M72,71.8l0-67.7H44c-11,0-20.9,4.4-28.1,11.6L72,71.8z"/>
	<path class="st15" d="M156.2,4.1H128v67.8l56.3-56.3C177,8.5,167.1,4.1,156.2,4.1z"/>
	<path class="st16" d="M196,43.9c0-11.1-4.5-21.1-11.8-28.3L128,71.9v0.3l68.1,0V43.9z"/>
</g>
</svg>
